<svg width="9" height="9" viewBox="0 0 9 9" fill="none" xmlns="http://www.w3.org/2000/svg">
<rect width="9" height="9" fill="#5865F2"/>
<g clip-path="url(#clip0_8_640)">
<path d="M5.08333 2.16667C5.08333 1.84583 5.34583 1.58333 5.66667 1.58333" stroke="white" stroke-width="0.75" stroke-linecap="round" stroke-linejoin="round"/>
<path d="M6.83333 1.58333C7.15417 1.58333 7.41667 1.84583 7.41667 2.16667" stroke="white" stroke-width="0.75" stroke-linecap="round" stroke-linejoin="round"/>
<path d="M7.41667 3.33333C7.41667 3.65417 7.15417 3.91667 6.83333 3.91667" stroke="white" stroke-width="0.75" stroke-linecap="round" stroke-linejoin="round"/>
<path d="M5.66667 3.91667C5.34583 3.91667 5.08333 3.65417 5.08333 3.33333" stroke="white" stroke-width="0.75" stroke-linecap="round" stroke-linejoin="round"/>
<path d="M1.875 3.04167L2.75 3.91667L3.625 3.04167" stroke="white" stroke-width="0.75" stroke-linecap="round" stroke-linejoin="round"/>
<path d="M2.75 3.91667V2.45833C2.75 1.9625 3.12917 1.58333 3.625 1.58333H3.91667" stroke="white" stroke-width="0.75" stroke-linecap="round" stroke-linejoin="round"/>
<path d="M3.33333 5.08334H2.16667C1.8445 5.08334 1.58333 5.3445 1.58333 5.66667V6.83334C1.58333 7.1555 1.8445 7.41667 2.16667 7.41667H3.33333C3.6555 7.41667 3.91667 7.1555 3.91667 6.83334V5.66667C3.91667 5.3445 3.6555 5.08334 3.33333 5.08334Z" stroke="white" stroke-width="0.75" stroke-linecap="round" stroke-linejoin="round"/>
</g>
<defs>
<clipPath id="clip0_8_640">
<rect width="7" height="7" fill="white" transform="translate(1 1)"/>
</clipPath>
</defs>
</svg>
