<svg width="9" height="9" viewBox="0 0 9 9" fill="none" xmlns="http://www.w3.org/2000/svg">
<rect width="9" height="9" fill="#5865F2"/>
<g clip-path="url(#clip0_8_628)">
<path d="M3.33333 7.125H6.83333C6.98804 7.125 7.13642 7.06354 7.24581 6.95415C7.35521 6.84475 7.41667 6.69638 7.41667 6.54167V5.95833H3.91667V6.54167C3.91667 6.69638 3.85521 6.84475 3.74581 6.95415C3.63642 7.06354 3.48804 7.125 3.33333 7.125ZM3.33333 7.125C3.17862 7.125 3.03025 7.06354 2.92085 6.95415C2.81146 6.84475 2.75 6.69638 2.75 6.54167V2.45833C2.75 2.30362 2.68854 2.15525 2.57915 2.04585C2.46975 1.93646 2.32138 1.875 2.16667 1.875C2.01196 1.875 1.86358 1.93646 1.75419 2.04585C1.64479 2.15525 1.58333 2.30362 1.58333 2.45833V3.33333H2.75" stroke="white" stroke-width="0.75" stroke-linecap="round" stroke-linejoin="round"/>
<path d="M6.54167 5.95833V2.45833C6.54167 2.30362 6.48021 2.15525 6.37081 2.04585C6.26142 1.93646 6.11304 1.875 5.95833 1.875H2.16667" stroke="white" stroke-width="0.75" stroke-linecap="round" stroke-linejoin="round"/>
</g>
<defs>
<clipPath id="clip0_8_628">
<rect width="7" height="7" fill="white" transform="translate(1 1)"/>
</clipPath>
</defs>
</svg>
