<svg width="14" height="14" viewBox="0 0 14 14" fill="none" xmlns="http://www.w3.org/2000/svg">
<rect width="14" height="14" fill="black"/>
<path d="M2.83333 7.83333H3.66667" stroke="url(#paint0_linear_10_93)" stroke-linecap="round" stroke-linejoin="round"/>
<path d="M10.3333 7.83333H11.1667" stroke="url(#paint1_linear_10_93)" stroke-linecap="round" stroke-linejoin="round"/>
<path d="M7 5.33333V3.66667H5.33333" stroke="url(#paint2_linear_10_93)" stroke-linecap="round" stroke-linejoin="round"/>
<path d="M9.5 5.33333H4.5C4.03976 5.33333 3.66667 5.70643 3.66667 6.16667V9.5C3.66667 9.96024 4.03976 10.3333 4.5 10.3333H9.5C9.96024 10.3333 10.3333 9.96024 10.3333 9.5V6.16667C10.3333 5.70643 9.96024 5.33333 9.5 5.33333Z" stroke="url(#paint3_linear_10_93)" stroke-linecap="round" stroke-linejoin="round"/>
<path d="M8.25 7.41667V8.25" stroke="url(#paint4_linear_10_93)" stroke-linecap="round" stroke-linejoin="round"/>
<path d="M5.75 7.41667V8.25" stroke="url(#paint5_linear_10_93)" stroke-linecap="round" stroke-linejoin="round"/>
<defs>
<linearGradient id="paint0_linear_10_93" x1="3.25" y1="7.83333" x2="3.25" y2="8.83333" gradientUnits="userSpaceOnUse">
<stop stop-color="#FF64FF"/>
<stop offset="1" stop-color="#6464FF"/>
</linearGradient>
<linearGradient id="paint1_linear_10_93" x1="10.75" y1="7.83333" x2="10.75" y2="8.83333" gradientUnits="userSpaceOnUse">
<stop stop-color="#FF64FF"/>
<stop offset="1" stop-color="#6464FF"/>
</linearGradient>
<linearGradient id="paint2_linear_10_93" x1="6.16667" y1="3.66667" x2="6.16667" y2="5.33333" gradientUnits="userSpaceOnUse">
<stop stop-color="#FF64FF"/>
<stop offset="1" stop-color="#6464FF"/>
</linearGradient>
<linearGradient id="paint3_linear_10_93" x1="7" y1="5.33333" x2="7" y2="10.3333" gradientUnits="userSpaceOnUse">
<stop stop-color="#FF64FF"/>
<stop offset="1" stop-color="#6464FF"/>
</linearGradient>
<linearGradient id="paint4_linear_10_93" x1="8.75" y1="7.41667" x2="8.75" y2="8.25" gradientUnits="userSpaceOnUse">
<stop stop-color="#FF64FF"/>
<stop offset="1" stop-color="#6464FF"/>
</linearGradient>
<linearGradient id="paint5_linear_10_93" x1="6.25" y1="7.41667" x2="6.25" y2="8.25" gradientUnits="userSpaceOnUse">
<stop stop-color="#FF64FF"/>
<stop offset="1" stop-color="#6464FF"/>
</linearGradient>
</defs>
</svg>
