<svg width="12" height="12" viewBox="0 0 12 12" fill="none" xmlns="http://www.w3.org/2000/svg">
<rect width="12" height="12" fill="black"/>
<path d="M1.83333 6.83333H2.66667" stroke="url(#paint0_linear_10_93)" stroke-linecap="round" stroke-linejoin="round"/>
<path d="M9.33333 6.83333H10.1667" stroke="url(#paint1_linear_10_93)" stroke-linecap="round" stroke-linejoin="round"/>
<path d="M6 4.33333V2.66667H4.33333" stroke="url(#paint2_linear_10_93)" stroke-linecap="round" stroke-linejoin="round"/>
<path d="M8.5 4.33333H3.5C3.03976 4.33333 2.66667 4.70643 2.66667 5.16667V8.5C2.66667 8.96024 3.03976 9.33333 3.5 9.33333H8.5C8.96024 9.33333 9.33333 8.96024 9.33333 8.5V5.16667C9.33333 4.70643 8.96024 4.33333 8.5 4.33333Z" stroke="url(#paint3_linear_10_93)" stroke-linecap="round" stroke-linejoin="round"/>
<path d="M7.25 6.41667V7.25" stroke="url(#paint4_linear_10_93)" stroke-linecap="round" stroke-linejoin="round"/>
<path d="M4.75 6.41667V7.25" stroke="url(#paint5_linear_10_93)" stroke-linecap="round" stroke-linejoin="round"/>
<defs>
<linearGradient id="paint0_linear_10_93" x1="2.25" y1="6.83333" x2="2.25" y2="7.83333" gradientUnits="userSpaceOnUse">
<stop stop-color="#FF64FF"/>
<stop offset="1" stop-color="#6464FF"/>
</linearGradient>
<linearGradient id="paint1_linear_10_93" x1="9.75" y1="6.83333" x2="9.75" y2="7.83333" gradientUnits="userSpaceOnUse">
<stop stop-color="#FF64FF"/>
<stop offset="1" stop-color="#6464FF"/>
</linearGradient>
<linearGradient id="paint2_linear_10_93" x1="5.16667" y1="2.66667" x2="5.16667" y2="4.33333" gradientUnits="userSpaceOnUse">
<stop stop-color="#FF64FF"/>
<stop offset="1" stop-color="#6464FF"/>
</linearGradient>
<linearGradient id="paint3_linear_10_93" x1="6" y1="4.33333" x2="6" y2="9.33333" gradientUnits="userSpaceOnUse">
<stop stop-color="#FF64FF"/>
<stop offset="1" stop-color="#6464FF"/>
</linearGradient>
<linearGradient id="paint4_linear_10_93" x1="7.75" y1="6.41667" x2="7.75" y2="7.25" gradientUnits="userSpaceOnUse">
<stop stop-color="#FF64FF"/>
<stop offset="1" stop-color="#6464FF"/>
</linearGradient>
<linearGradient id="paint5_linear_10_93" x1="5.25" y1="6.41667" x2="5.25" y2="7.25" gradientUnits="userSpaceOnUse">
<stop stop-color="#FF64FF"/>
<stop offset="1" stop-color="#6464FF"/>
</linearGradient>
</defs>
</svg>
